<svg xmlns="http://www.w3.org/2000/svg" viewBox="0 0 168.86 168.86" width="80" height="80"><path d="M57.35,84.32A23.78,23.78,0,0,0,41,91.3l-24,24A23.86,23.86,0,0,0,17,149l2.84,2.85a23.88,23.88,0,0,0,33.76,0l24-24a23.78,23.78,0,0,0,7-16.39" style="fill:none;stroke:#7b60fb;stroke-linecap:round;stroke-linejoin:round;stroke-width:20px"/><path d="M111.51,84.54a23.78,23.78,0,0,0,16.39-7l24-24a23.88,23.88,0,0,0,0-33.76L149,17a23.86,23.86,0,0,0-33.75,0l-24,24a23.78,23.78,0,0,0-7,16.39" style="fill:none;stroke:#7b60fb;stroke-linecap:round;stroke-linejoin:round;stroke-width:20px"/><circle cx="84.33" cy="83.88" r="9" style="fill:#7b60fb;stroke:#7b60fb;stroke-linecap:round;stroke-linejoin:round;stroke-width:10px"/></svg>