<?xml version="1.0" encoding="utf-8"?>
<!-- Generator: Adobe Illustrator 23.0.3, SVG Export Plug-In . SVG Version: 6.00 Build 0)  -->
<svg version="1.1" id="Layer_1" xmlns="http://www.w3.org/2000/svg" xmlns:xlink="http://www.w3.org/1999/xlink" x="0px" y="0px"
	 viewBox="0 0 1000 1000" style="enable-background:new 0 0 1000 1000;" xml:space="preserve">
<g id="Layer_12">
	<rect y="0" style="fill:#8D77F6;" width="1000" height="1000"/>
</g>
<g id="Layer_11">
	<polygon style="fill:#8670EF;" points="1000,0 0,0 0,1000 758.1,1000 1000,746.2 	"/>
</g>
<g id="Layer_10">
	<polygon style="fill:#7F69E8;" points="1000,0 0,0 0,1000 531.5,1000 1000,551.8 	"/>
</g>
<g id="Layer_9">
	<polygon style="fill:#7862E1;" points="1000,0 0,0 0,1000 284.2,1000 1000,395.6 	"/>
</g>
<g id="Layer_8">
	<polygon style="fill:#715BDA;" points="1000,0 0,0 0,1000 8.7,1000 1000,260.3 	"/>
</g>
<g id="Layer_7">
	<polygon style="fill:#6A54D2;" points="1000,0 0,0 0,801 1000,146.5 	"/>
</g>
<g id="Layer_6">
	<polygon style="fill:#634DCB;" points="1000,0 0,0 0,613.7 1000,46.9 	"/>
</g>
<g>
	<polygon style="fill:#5C46C4;" points="905.7,0 0,0 0,440 	"/>
</g>
<g id="Layer_3">
	<path style="fill:#553FBD;" d="M721.8,0L0,0l0,259.3C218,182.6,545.3,64.1,721.8,0z"/>
</g>
<g id="Layer_4">
	<polygon style="fill:#4E38B6;" points="423.5,0 0,0 0,91.7 	"/>
</g>
</svg>
