<?xml version="1.0" encoding="utf-8"?>
<!-- Generator: Adobe Illustrator 23.0.3, SVG Export Plug-In . SVG Version: 6.00 Build 0)  -->
<svg version="1.1" id="Layer_1" xmlns="http://www.w3.org/2000/svg" xmlns:xlink="http://www.w3.org/1999/xlink" x="0px" y="0px"
	 viewBox="0 0 1000 1000" style="enable-background:new 0 0 1000 1000;" xml:space="preserve">
<g id="Layer_12">
	<rect y="0" style="fill:#8D77F6;" width="1000" height="1000"/>
</g>
<g id="Layer_11">
	<polygon style="fill:#8670EF;" points="1000,253.8 758.1,0 0,0 0,1000 1000,1000 	"/>
</g>
<g id="Layer_10">
	<polygon style="fill:#7F69E8;" points="1000,448.2 531.5,0 0,0 0,1000 1000,1000 	"/>
</g>
<g id="Layer_9">
	<polygon style="fill:#7862E1;" points="1000,604.4 284.2,0 0,0 0,1000 1000,1000 	"/>
</g>
<g id="Layer_8">
	<polygon style="fill:#715BDA;" points="1000,739.7 8.7,0 0,0 0,1000 1000,1000 	"/>
</g>
<g id="Layer_7">
	<polygon style="fill:#6A54D2;" points="1000,853.5 0,199 0,1000 1000,1000 	"/>
</g>
<g id="Layer_6">
	<polygon style="fill:#634DCB;" points="1000,953.1 0,386.3 0,1000 1000,1000 	"/>
</g>
<g>
	<polygon style="fill:#5C46C4;" points="0,560 0,1000 905.7,1000 	"/>
</g>
<g id="Layer_3">
	<path style="fill:#553FBD;" d="M0,740.7L0,1000h721.8C545.3,935.9,218,817.4,0,740.7z"/>
</g>
<g id="Layer_4">
	<polygon style="fill:#4E38B6;" points="0,908.3 0,1000 423.5,1000 	"/>
</g>
</svg>
