<?xml version="1.0" encoding="utf-8"?>
<!-- Generator: Adobe Illustrator 23.0.3, SVG Export Plug-In . SVG Version: 6.00 Build 0)  -->
<svg version="1.1" id="Layer_1" xmlns="http://www.w3.org/2000/svg" xmlns:xlink="http://www.w3.org/1999/xlink" x="0px" y="0px"
	 viewBox="0 0 1000 1000" style="enable-background:new 0 0 1000 1000;" xml:space="preserve">
<g id="Layer_12">
	<rect style="fill:#8D77F6;" width="1000" height="1000"/>
</g>
<g id="Layer_11">
	<polygon style="fill:#8670EF;" points="0,1000 1000,1000 1000,0 241.9,0 0,253.8 	"/>
</g>
<g id="Layer_10">
	<polygon style="fill:#7F69E8;" points="0,1000 1000,1000 1000,0 468.5,0 0,448.2 	"/>
</g>
<g id="Layer_9">
	<polygon style="fill:#7862E1;" points="0,1000 1000,1000 1000,0 715.8,0 0,604.4 	"/>
</g>
<g id="Layer_8">
	<polygon style="fill:#715BDA;" points="0,1000 1000,1000 1000,0 991.3,0 0,739.7 	"/>
</g>
<g id="Layer_7">
	<polygon style="fill:#6A54D2;" points="0,1000 1000,1000 1000,199 0,853.5 	"/>
</g>
<g id="Layer_6">
	<polygon style="fill:#634DCB;" points="0,1000 1000,1000 1000,386.3 0,953.1 	"/>
</g>
<g>
	<polygon style="fill:#5C46C4;" points="94.3,1000 1000,1000 1000,560 	"/>
</g>
<g id="Layer_3">
	<path style="fill:#553FBD;" d="M278.2,1000H1000V740.7C782,817.4,454.7,935.9,278.2,1000z"/>
</g>
<g id="Layer_4">
	<polygon style="fill:#4E38B6;" points="576.5,1000 1000,1000 1000,908.3 	"/>
</g>
</svg>
