<svg xmlns="http://www.w3.org/2000/svg" viewBox="0 0 50.5 32.5"><title>gaming</title><path d="M14.25,2.25a9.45,9.45,0,0,1,5,1.38,12,12,0,0,0,6,1.62h.31a12,12,0,0,0,5.66-1.62,9.45,9.45,0,0,1,5-1.38,6,6,0,0,1,3.53,1.91,24,24,0,0,1,4,5.34c2.53,4.37,4.44,10,4.44,14.75a7.85,7.85,0,0,1-1.19,4.44,3.26,3.26,0,0,1-2.81,1.56c-4.17,0-7.16-2.06-10-4.28s-5.5-4.72-9-4.72-6.16,2.5-9,4.72-5.83,4.28-10,4.28a3.26,3.26,0,0,1-2.81-1.56,7.85,7.85,0,0,1-1.19-4.44c0-4.74,1.91-10.38,4.44-14.75a24,24,0,0,1,4-5.34A6,6,0,0,1,14.25,2.25Z" style="fill:#fff"/><path d="M24.34,3.22a27,27,0,0,1-4.12-1.34,11.85,11.85,0,0,0-6-1.63c-1.71,0-3.35,1-4.91,2.47A25.84,25.84,0,0,0,4.94,8.5C2.26,13.13.25,19,.25,24.25a9.66,9.66,0,0,0,1.56,5.56,5.45,5.45,0,0,0,4.44,2.44c4.83,0,8.34-2.44,11.25-4.72s5.25-4.28,7.75-4.28,4.84,2,7.75,4.28,6.42,4.72,11.25,4.72a5.45,5.45,0,0,0,4.44-2.44,9.66,9.66,0,0,0,1.56-5.56c0-5.26-2-11.12-4.69-15.75a25.84,25.84,0,0,0-4.4-5.78C39.6,1.25,38,.25,36.25.25a12,12,0,0,0-6,1.63,9.92,9.92,0,0,1-3.91,1.31l-1,.09Zm-10.09-1a9.45,9.45,0,0,1,5,1.38,12,12,0,0,0,6,1.62h.31a12,12,0,0,0,5.66-1.62,9.45,9.45,0,0,1,5-1.38,6,6,0,0,1,3.53,1.91,24,24,0,0,1,4,5.34c2.53,4.37,4.44,10,4.44,14.75a7.85,7.85,0,0,1-1.19,4.44,3.26,3.26,0,0,1-2.81,1.56c-4.17,0-7.16-2.06-10-4.28s-5.5-4.72-9-4.72-6.16,2.5-9,4.72-5.83,4.28-10,4.28a3.26,3.26,0,0,1-2.81-1.56,7.85,7.85,0,0,1-1.19-4.44c0-4.74,1.91-10.38,4.44-14.75a24,24,0,0,1,4-5.34A6,6,0,0,1,14.25,2.25Zm23,7a2,2,0,1,0,2,2A2,2,0,0,0,37.25,9.25Zm-25,1v3h-3v3h3v3h3v-3h3v-3h-3v-3Zm21,3a2,2,0,1,0,2,2A2,2,0,0,0,33.25,13.25Zm8,0a2,2,0,1,0,2,2A2,2,0,0,0,41.25,13.25Zm-4,4a2,2,0,1,0,2,2A2,2,0,0,0,37.25,17.25Z" style="stroke:#000;stroke-miterlimit:10;stroke-width:0.5px"/></svg>