<svg xmlns="http://www.w3.org/2000/svg" viewBox="0 0 26.04 43.75"><title>watch</title><path d="M24,9.37H1A10.91,10.91,0,0,0,5.21,2.19,1.8,1.8,0,0,1,6.46.73a27.25,27.25,0,0,1,6-.73,27.25,27.25,0,0,1,6,.73,1.46,1.46,0,0,1,1.25,1.46A10.91,10.91,0,0,0,24,9.37Zm0,25H1a10.94,10.94,0,0,1,4.17,7.19A1.8,1.8,0,0,0,6.46,43a27.25,27.25,0,0,0,6,.73,27.25,27.25,0,0,0,6-.73,1.55,1.55,0,0,0,1.25-1.46A10.94,10.94,0,0,1,24,34.37Z" style="fill:#ccc"/><path d="M19.79,36.46H5.21A5.23,5.23,0,0,1,0,31.25V12.5A5.23,5.23,0,0,1,5.21,7.29H19.79A5.23,5.23,0,0,1,25,12.5V31.25A5.16,5.16,0,0,1,19.79,36.46Z"/><path d="M19.48,34.37h-14a3.47,3.47,0,0,1-3.44-3.43V12.81A3.47,3.47,0,0,1,5.52,9.38h14a3.47,3.47,0,0,1,3.44,3.43V30.94A3.47,3.47,0,0,1,19.48,34.37Z" style="fill:#fff"/><path d="M2.4,11.46a2,2,0,0,0,1.77,1H20.83a2,2,0,0,0,1.77-1,3.41,3.41,0,0,0-3.12-2.09h-14A3.41,3.41,0,0,0,2.4,11.46Z" style="fill:#fff"/><path d="M25,19.79h0a1,1,0,0,0,1-1V14.58a1,1,0,0,0-1-1h0c-.86,0-1,2.12-1,3.13S24.14,19.79,25,19.79Z" style="fill:#666"/></svg>