<svg xmlns="http://www.w3.org/2000/svg" viewBox="0 0 70.11 70.11"><title>blackberrybrowser</title><circle cx="35.05" cy="35.05" r="35.05"/><path d="M16,35.48h6.72L20.89,44H14.44c-4.19,0-5.18-2.06-5.18-3.69C9.26,38,10.75,35.48,16,35.48ZM11.76,28.2c0-2.3,1.49-4.78,6.74-4.78h6.72l-1.83,8.47H16.94C12.76,31.89,11.76,29.82,11.76,28.2ZM31.64,43.07h6.71l-1.84,8.47H30.08c-4.19,0-5.19-2.06-5.19-3.69C24.89,45.55,26.38,43.07,31.64,43.07Zm-4.42-8c0-2.3,1.49-4.78,6.74-4.78h6.71l-1.82,8.46H32.4C28.21,38.78,27.22,36.73,27.22,35.1Zm2.5-13.28c0-2.31,1.49-4.78,6.73-4.78h6.72l-1.83,8.47H34.89C30.71,25.51,29.72,23.45,29.72,21.82ZM49.61,43.07h6.7l-1.82,8.47H48c-4.18,0-5.19-2.06-5.19-3.69C42.85,45.55,44.35,43.07,49.61,43.07Zm-4.43-8c0-2.3,1.5-4.78,6.74-4.78h6.73l-1.84,8.46H50.37C46.18,38.78,45.18,36.73,45.18,35.1Z" style="fill:#fff"/></svg>