<svg xmlns="http://www.w3.org/2000/svg" viewBox="0 0 36 42.35"><title>brave</title><path d="M35,10l1,4L31.91,30.35a10,10,0,0,1-4,5.79l-8.19,5.68a3,3,0,0,1-3.42,0L8.1,36.14a10,10,0,0,1-4-5.79L0,14l1-4L0,8,3.25,4.75a4,4,0,0,1,4-1l.1,0L8,4l4-4H24l4,4,.65-.22a3.89,3.89,0,0,1,2.5,0,4.08,4.08,0,0,1,1.58,1l0,0L36,8Z" style="fill:#ff651f"/><path d="M32.73,4.73,27,8l-9,2L9,7,6.93,4.93a2,2,0,0,0-2.15-.44l-2.11.84.58-.58a4,4,0,0,1,4-1l.1,0L8,4l4-4H24l4,4,.65-.22a3.89,3.89,0,0,1,2.5,0A4.08,4.08,0,0,1,32.73,4.73Z" style="fill:#f4592b"/><path d="M26.51,20.49a1,1,0,0,0-.19,1.15l.34.68A3.28,3.28,0,0,1,27,23.76a3.19,3.19,0,0,1-.83,2.16l-.66.74a1,1,0,0,1-1,.05l-5.23-2.88a1,1,0,0,1,0-1.66l3.91-2.66a1,1,0,0,0,.35-1.37L21.59,15c-.31-.52-.14-.74.41-1l6-3H23l-3,.75A1,1,0,0,0,19.28,13l1.46,5.09a1,1,0,0,1-.65,1.22l-1.47.49a1.93,1.93,0,0,1-.62.11,2,2,0,0,1-.63-.11l-1.46-.49a1,1,0,0,1-.65-1.22L16.72,13A1,1,0,0,0,16,11.75L13,11H8l6,3c.55.24.72.46.41,1l-1.9,3.16a1,1,0,0,0,.35,1.37l3.91,2.66a1,1,0,0,1,0,1.66l-5.23,2.88a1,1,0,0,1-1-.05l-.66-.74A3.19,3.19,0,0,1,9,23.76a3.28,3.28,0,0,1,.34-1.44l.34-.68a1,1,0,0,0-.19-1.15L5.4,15.66a3,3,0,0,1-.26-3.51l3.4-5.54a1,1,0,0,1,1.17-.33l2.62,1a4.07,4.07,0,0,0,1.49.29,4,4,0,0,0,1.79-.42,5.3,5.3,0,0,1,4.78,0,4,4,0,0,0,3.28.13l2.62-1a1,1,0,0,1,1.17.33l3.4,5.54a3,3,0,0,1-.26,3.51Z" style="fill:#fff"/><path d="M23.51,29.49l-4.8,3.8a1,1,0,0,1-1.42,0l-4.8-3.8a.5.5,0,0,1,.13-.8l4.93-2.47a1.06,1.06,0,0,1,.9,0l4.93,2.47A.5.5,0,0,1,23.51,29.49Z" style="fill:#fff"/><path d="M35,10l1,4L31.91,30.35a10,10,0,0,1-4,5.79l-8.19,5.68a3,3,0,0,1-1.71.53v-35L19,9h7V7l5.15-3.22a4,4,0,0,1,1.6,1L36,8Z" style="fill:#ed4d01"/><path d="M26.51,20.49a1,1,0,0,0-.19,1.15l.34.68A3.28,3.28,0,0,1,27,23.76a3.19,3.19,0,0,1-.83,2.16l-.66.74a1,1,0,0,1-1,.05l-5.23-2.88a1,1,0,0,1,0-1.66l3.91-2.66a1,1,0,0,0,.35-1.37L21.59,15c-.31-.52-.14-.74.41-1l6-3H23l-3,.75A1,1,0,0,0,19.28,13l1.46,5.09a1,1,0,0,1-.65,1.22l-1.47.49a1.93,1.93,0,0,1-.62.11V6.63a5.29,5.29,0,0,1,2.39.57,4,4,0,0,0,3.28.13l2.62-1a1,1,0,0,1,1.17.33l3.4,5.54a3,3,0,0,1-.26,3.51Z" style="fill:#f5f5f5"/><path d="M23.51,29.49l-4.8,3.8a1,1,0,0,1-.71.29V26.12a1,1,0,0,1,.45.1l4.93,2.47A.5.5,0,0,1,23.51,29.49Z" style="fill:#f5f5f5"/></svg>