<svg xmlns="http://www.w3.org/2000/svg" xmlns:xlink="http://www.w3.org/1999/xlink" viewBox="0 0 62.25 62.09"><defs><linearGradient id="a" x1="37.92" y1="26.4" x2="54.17" y2="28.17" gradientTransform="matrix(1, 0, 0, -1, 3.39, 46.98)" gradientUnits="userSpaceOnUse"><stop offset="0" stop-color="#b2cde9"/><stop offset="1" stop-color="#c4dbee"/></linearGradient><radialGradient id="b" cx="-203.21" cy="-2.14" r="26.48" gradientTransform="matrix(-0.01, 0.56, 1.03, 0.01, 31.03, 117.3)" gradientUnits="userSpaceOnUse"><stop offset="0" stop-color="#658db6"/><stop offset="0.77" stop-color="#527fab"/><stop offset="1" stop-color="#4071a0"/></radialGradient><radialGradient id="c" cx="-189.53" cy="-127.97" r="16.75" gradientTransform="matrix(0.81, 1.7, 2.15, -1.03, 461.34, 220.12)" gradientUnits="userSpaceOnUse"><stop offset="0" stop-color="#d0e2f1"/><stop offset="0.86" stop-color="#cadef0"/><stop offset="1" stop-color="#95bee3"/></radialGradient><radialGradient id="d" cx="-386.33" cy="-226.14" r="16.45" gradientTransform="matrix(-1.29, -0.09, -0.11, 1.71, -501.63, 384.47)" gradientUnits="userSpaceOnUse"><stop offset="0" stop-color="#96d0e1"/><stop offset="0.68" stop-color="#89b7e1"/><stop offset="1" stop-color="#699dd3"/></radialGradient><linearGradient id="e" x1="-513.31" y1="53.56" x2="-513.24" y2="80.66" gradientTransform="matrix(0.77, 0, 0, -0.78, 427.79, 82.82)" gradientUnits="userSpaceOnUse"><stop offset="0" stop-color="#3b79bc"/><stop offset="1" stop-color="#94b8e0"/></linearGradient><linearGradient id="f" x1="-513.37" y1="84.56" x2="-513.19" y2="49.03" gradientTransform="matrix(0.77, 0, 0, -0.78, 427.79, 82.82)" gradientUnits="userSpaceOnUse"><stop offset="0" stop-color="#d7def0"/><stop offset="0.5" stop-color="#fff"/><stop offset="1" stop-color="#d5def0"/></linearGradient></defs><title>chromium</title><path d="M59.73,18.82c0,4.34-5.48,9.67-12.7,9.67S30.44,24,30.44,19.7s5.85-7.86,13.06-7.86c5.51,0,12.84,5.07,15.64,5.64C59.36,18,59.52,18.29,59.73,18.82Z" style="fill:url(#a)"/><path d="M6.18,12.69C9.61,10,16,12.34,20.39,18s4.9,14.14,1.47,16.8S12.4,33.38,8,27.68c-3.38-4.35-1.12-11.41-2.38-14C5.76,13.4,6,13,6.18,12.69Z" style="fill:#2e5c91"/><path d="M59.14,17.48c-1.94,0-16.91.08-29.82,0-4.81,1.42-8.78,3.68-10.85,8.08C17,24.31,7.19,13.88,6.18,12.71A30.77,30.77,0,0,1,29.14.09c2.32,0,19.56-2.39,30,17.39Z" style="fill:url(#b)"/><path d="M27.87,62c-3.46-2.62-4-10.23.32-16S39.55,36.32,43,38.94s2.06,10.79-2.29,16.54c-3.33,4.4-9.83,4.68-12,6.56A6.51,6.51,0,0,1,27.87,62Z" style="fill:#699dd3"/><path d="M28.75,62c1-1.66,8-14.65,14.59-25.73C44.56,31.44,44.82,27,42.08,23c1.83-.63,16.13-3.87,17.65-4.15A30.79,30.79,0,0,1,59,45c-1.18,2-7.86,18.07-30.2,17Z" style="fill:url(#c)"/><path d="M5.6,13.7c1,1.69,8.5,14.62,14.89,25.83,3.62,3.47,7.67,5.4,12.51,5-.35,1.91-4.6,16-5.11,17.45A30.82,30.82,0,0,1,5.5,48.38c-1.16-2-11.83-15.76.1-34.68Z" style="fill:url(#d)"/><path d="M43.7,31a12.65,12.65,0,1,1-12.65-12.7A12.68,12.68,0,0,1,43.7,31Z" style="stroke-width:2.7886441961016146px;fill:url(#e);stroke:url(#f)"/><path d="M40.72,24.57c5.13,4.74,4.44,8.19,2.79,12.19C42.65,30.6,42.86,27.78,40.72,24.57Z" style="fill:#fff"/><path d="M23.52,42.5c-6.27-4-8.26-12.66-2.44-17.44C18.08,30.54,19.36,34,23.52,42.5Z" style="fill:#fff"/></svg>