<svg xmlns="http://www.w3.org/2000/svg" xmlns:xlink="http://www.w3.org/1999/xlink" viewBox="0 0 176 176.01"><defs><clipPath id="a"><circle cx="88" cy="88" r="88" style="fill:none"/></clipPath><linearGradient id="b" x1="28.34" y1="97.98" x2="80.84" y2="128.65" gradientTransform="matrix(1, 0, 0, -1, -7, 165)" gradientUnits="userSpaceOnUse"><stop offset="0" stop-color="#a52714" stop-opacity="0.6"/><stop offset="0.66" stop-color="#a52714" stop-opacity="0"/></linearGradient><linearGradient id="e" x1="109.87" y1="8.5" x2="51.54" y2="42.67" gradientTransform="matrix(1, 0, 0, -1, -7, 165)" gradientUnits="userSpaceOnUse"><stop offset="0" stop-color="#055524" stop-opacity="0.4"/><stop offset="0.33" stop-color="#055524" stop-opacity="0"/></linearGradient><clipPath id="h"><polygon points="0 176 83.77 176 122.65 137.12 122.65 108 53.36 108 0 16.48 0 176" style="fill:none"/></clipPath><linearGradient id="i" x1="120.85" y1="123.19" x2="135.54" y2="58.87" gradientTransform="matrix(1, 0, 0, -1, -7, 165)" gradientUnits="userSpaceOnUse"><stop offset="0" stop-color="#ea6100" stop-opacity="0.3"/><stop offset="0.66" stop-color="#ea6100" stop-opacity="0"/></linearGradient><clipPath id="m"><polygon points="88 48 122.65 108 83.77 176 176 176 176 48 88 48" style="fill:none"/></clipPath><radialGradient id="p" cx="667.18" cy="117.05" r="84.08" gradientTransform="matrix(1, 0, 0, -1, -583, 165)" gradientUnits="userSpaceOnUse"><stop offset="0" stop-color="#3e2723" stop-opacity="0.2"/><stop offset="1" stop-color="#3e2723" stop-opacity="0"/></radialGradient><clipPath id="r"><polygon points="13.97 0 13.97 40.34 53.36 108 88 48 176 48 176 0 13.97 0" style="fill:none"/></clipPath><radialGradient id="u" cx="596.88" cy="124.48" r="78.04" xlink:href="#p"/><radialGradient id="w" cx="670.84" cy="76.86" r="87.87" gradientTransform="matrix(1, 0, 0, -1, -583, 165)" gradientUnits="userSpaceOnUse"><stop offset="0" stop-color="#263238" stop-opacity="0.2"/><stop offset="1" stop-color="#263238" stop-opacity="0"/></radialGradient><radialGradient id="aa" cx="33.29" cy="140.99" r="176.75" gradientTransform="matrix(1, 0, 0, -1, -7, 165)" gradientUnits="userSpaceOnUse"><stop offset="0" stop-color="#fff" stop-opacity="0.1"/><stop offset="1" stop-color="#fff" stop-opacity="0"/></radialGradient></defs><title>chrome</title><g style="clip-path:url(#a)"><path d="M14,0V108H53.36L88,48h88V0Z" style="fill:#db4437"/><path d="M14,0V108H53.36L88,48h88V0Z" style="fill:url(#b)"/></g><g style="clip-path:url(#a)"><path d="M54.31,107.65,14.48,39.34l-.58,1,39.54,67.8Z" style="fill:#3e2723;fill-opacity:0.15000000596046448"/></g><g style="clip-path:url(#a)"><path d="M0,176H83.77l38.88-38.88V108H53.36L0,16.48Z" style="fill:#0f9d58"/><path d="M0,176H83.77l38.88-38.88V108H53.36L0,16.48Z" style="fill:url(#e)"/></g><g style="clip-path:url(#a)"><path d="M121.84,109.33l-.83-.48L82.62,176h1.15l38.1-66.64Z" style="fill:#263238;fill-opacity:0.15000000596046448"/></g><g style="clip-path:url(#a)"><g style="clip-path:url(#h)"><path d="M88,48l34.65,60L83.77,176H176V48Z" style="fill:#ffcd40"/><path d="M88,48l34.65,60L83.77,176H176V48Z" style="fill:url(#i)"/></g></g><g style="clip-path:url(#a)"><path d="M88,48l34.65,60L83.77,176H176V48Z" style="fill:#ffcd40"/><path d="M88,48l34.65,60L83.77,176H176V48Z" style="fill:url(#i)"/></g><g style="clip-path:url(#a)"><g style="clip-path:url(#m)"><path d="M14,0V108H53.36L88,48h88V0Z" style="fill:#db4437"/><path d="M14,0V108H53.36L88,48h88V0Z" style="fill:url(#b)"/></g></g><g style="clip-path:url(#a)"><path d="M88,48V69l78.4-21Z" style="fill:url(#p)"/></g><g style="clip-path:url(#a)"><g style="clip-path:url(#r)"><path d="M0,176H83.77l38.88-38.88V108H53.36L0,16.48Z" style="fill:#0f9d58"/><path d="M0,176H83.77l38.88-38.88V108H53.36L0,16.48Z" style="fill:url(#e)"/></g></g><g style="clip-path:url(#a)"><path d="M14,40.45,71.22,97.69,53.36,108Z" style="fill:url(#u)"/></g><g style="clip-path:url(#a)"><path d="M83.83,175.89l21-78.2L122.65,108Z" style="fill:url(#w)"/></g><g style="clip-path:url(#a)"><circle cx="88" cy="88" r="40" style="fill:#f1f1f1"/><circle cx="88" cy="88" r="32" style="fill:#4285f4"/></g><g style="clip-path:url(#a)"><path d="M88,47A40,40,0,0,0,48,87v1A40,40,0,0,1,88,48h88V47Z" style="fill:#3e2723;fill-opacity:0.20000000298023224"/><path d="M122.6,108a39.94,39.94,0,0,1-69.21,0h0L0,16.48v1L53.36,109h0a39.94,39.94,0,0,0,69.21,0h0v-1Z" style="fill:#fff;fill-opacity:0.10000000149011612"/><path d="M89,48c-.17,0-.33,0-.5,0a40,40,0,0,1,0,79.94c.17,0,.33,0,.5,0a40,40,0,0,0,0-80Z" style="fill:#3e2723;opacity:0.10000000149011612;isolation:isolate"/><path d="M123,109.33a39.87,39.87,0,0,0,3.5-32A39.56,39.56,0,0,1,122.63,108l0,0L83.77,176h1.16L123,109.37Z" style="fill:#fff;fill-opacity:0.20000000298023224"/></g><g style="clip-path:url(#a)"><path d="M88,1a88,88,0,0,1,88,87.5c0-.17,0-.33,0-.5A88,88,0,0,0,0,88c0,.17,0,.33,0,.5A88,88,0,0,1,88,1Z" style="fill:#fff;fill-opacity:0.20000000298023224"/><path d="M88,175a88,88,0,0,0,88-87.5c0,.17,0,.33,0,.5A88,88,0,0,1,0,88c0-.17,0-.33,0-.5A88,88,0,0,0,88,175Z" style="fill:#3e2723;fill-opacity:0.15000000596046448"/></g><circle cx="88" cy="88" r="88" style="fill:url(#aa)"/></svg>