<svg xmlns="http://www.w3.org/2000/svg" xmlns:xlink="http://www.w3.org/1999/xlink" viewBox="0 0 157.17 157.17"><defs><linearGradient id="a" x1="-44.64" y1="152.29" x2="-43.64" y2="152.29" gradientTransform="matrix(0, 152.32, 152.32, 0, -23131.83, 6801.88)" gradientUnits="userSpaceOnUse"><stop offset="0" stop-color="#36b5f5"/><stop offset="0.53" stop-color="#6137f5"/><stop offset="1" stop-color="#5b0d6b"/></linearGradient><linearGradient id="b" x1="-44.67" y1="152.15" x2="-43.67" y2="152.15" gradientTransform="matrix(0, 134.72, 134.72, 0, -20393.79, 6029.13)" gradientUnits="userSpaceOnUse"><stop offset="0" stop-color="#211060"/><stop offset="0.51" stop-color="#9b32bf"/><stop offset="1" stop-color="#fe7a79"/></linearGradient></defs><title>operatouch</title><path d="M0,78.59a78.58,78.58,0,0,0,74.84,78.49q1.86.09,3.75.09a78.26,78.26,0,0,0,52.37-20,56.69,56.69,0,0,1-31.49,9.63c-18.72,0-35.48-9.29-46.75-23.93C44,112.62,38.4,97.45,38,80.44v-3.7c.38-17,6-32.18,14.7-42.44C64,19.66,80.75,10.38,99.47,10.38A56.68,56.68,0,0,1,131,20,78.33,78.33,0,0,0,78.88,0h-.29A78.59,78.59,0,0,0,0,78.59Z" style="fill-rule:evenodd;fill:url(#a)"/><path d="M52.72,34.3c7.21-8.51,16.52-13.65,26.7-13.65,22.88,0,41.42,25.94,41.42,57.94s-18.54,57.93-41.42,57.93c-10.17,0-19.49-5.13-26.7-13.64,11.27,14.64,28,23.92,46.75,23.92A56.69,56.69,0,0,0,131,137.17,78.57,78.57,0,0,0,131,20a56.61,56.61,0,0,0-31.49-9.63C80.75,10.38,64,19.66,52.72,34.3Z" style="fill-rule:evenodd;fill:url(#b)"/></svg>