<svg xmlns="http://www.w3.org/2000/svg" viewBox="0 0 297.96 354.37"><title>qq</title><path d="M149,350.3c-30.87,0-59.2-10.33-77.45-25.76-9.26,2.77-21.11,7.22-28.59,12.75-6.4,4.72-5.6,9.54-4.45,11.48,5.07,8.55,86.87,5.46,110.49,2.8Z" style="fill:#faab07"/><path d="M149,350.3c30.87,0,59.2-10.33,77.45-25.76,9.26,2.77,21.11,7.22,28.59,12.75,6.4,4.72,5.6,9.54,4.45,11.48-5.07,8.55-86.87,5.46-110.49,2.8Z" style="fill:#faab07"/><path d="M149.19,165.3c51-.35,91.83-10.21,105.67-14a13,13,0,0,0,5.06-2.52c0-.46.21-8.29.21-12.34C260.13,68.39,228,0,149,0S37.87,68.39,37.87,136.44c0,4.05.19,11.88.21,12.34A9.36,9.36,0,0,0,42.14,151c12.78,3.56,54.41,13.91,106.67,14.27Z"/><path d="M287.71,222c-3.16-10.17-7.47-22-11.84-33.42a12.67,12.67,0,0,0-3.79.06c-39.19,11.38-86.69,18.64-122.89,18.2h-.38c-36,.43-83.18-6.74-122.24-18a17.86,17.86,0,0,0-4.44-.25C17.76,200,13.45,211.83,10.29,222-4.78,270.49.11,290.55,3.82,291c8,1,31.05-36.51,31.05-36.51,0,38.07,34.37,96.53,113.09,97.07h2c78.72-.54,113.09-59,113.09-97.07,0,0,23.07,37.47,31.05,36.51,3.71-.46,8.6-20.52-6.47-69"/><path d="M120.89,100.54C110.17,101,101,88.82,100.44,73.3s7.63-28.51,18.34-29S138.64,56,139.22,71.55s-7.62,28.51-18.33,29" style="fill:#fff"/><path d="M197.56,73.3c-.57,15.52-9.73,27.73-20.45,27.24s-18.92-13.46-18.33-29,9.73-27.73,20.44-27.25,18.92,13.47,18.34,29" style="fill:#fff"/><path d="M216.61,122.46c-2.86-6.34-31.71-13.41-67.42-13.41h-.38c-35.71,0-64.56,7.07-67.42,13.41a2,2,0,0,0-.21.91,2.21,2.21,0,0,0,.39,1.22c2.42,3.51,34.45,20.9,67.24,20.9h.38c32.79,0,64.82-17.38,67.23-20.9a2.17,2.17,0,0,0,.4-1.23,2,2,0,0,0-.21-.9" style="fill:#faab07"/><path d="M134.06,73.52c.49,6.14-2.87,11.58-7.5,12.18s-8.79-3.89-9.28-10,2.87-11.58,7.49-12.17,8.81,3.89,9.29,10"/><path d="M163.51,75.57c.94-1.69,7.4-10.62,20.75-7.37,3.51.86,5.13,2.11,5.47,2.61a3.31,3.31,0,0,1,.14,3.16c-1,2.78-3.12,2.7-4.28,2.16-.75-.35-10.05-6.55-18.62,2.7a1.92,1.92,0,0,1-2.64.1,2.77,2.77,0,0,1-.82-3.36"/><path d="M149.19,204.61h-.38c-24.62.3-54.47-3-83.38-8.66a234.3,234.3,0,0,0-2.68,53.82C66,304.06,98.23,338.18,148,338.68h2c49.77-.5,82-34.62,85.25-88.91a233.81,233.81,0,0,0-2.69-53.83c-28.91,5.71-58.77,9-83.39,8.67" style="fill:#fff"/><path d="M79.06,200.07v53.42s24.47,4.94,49,1.52V205.73a450.62,450.62,0,0,1-49-5.66" style="fill:#eb1923"/><path d="M259.92,148.78s-47.6,15-110.73,15.46h-.38c-63-.43-110.57-15.41-110.73-15.46l-15.95,39.8c39.88,12,89.31,19.77,126.68,19.32h.38c37.37.45,86.79-7.3,126.68-19.32Z" style="fill:#eb1923"/></svg>