<svg xmlns="http://www.w3.org/2000/svg" viewBox="0 0 384 384"><title>samsung</title><path d="M235.78,384H148.22A148.22,148.22,0,0,1,0,235.78V148.22A148.22,148.22,0,0,1,148.22,0h87.56A148.22,148.22,0,0,1,384,148.22v87.56A148.22,148.22,0,0,1,235.78,384Z" style="fill:#7882ff"/><path d="M90,192a103.94,103.94,0,0,0,.74,12.42c1.11,2.25,2.36,4.51,3.77,6.78C69.93,189.4,57.91,165.89,65,147.42,71.29,131,91.56,121.67,119.13,120c26.92-1.65,60.8,4,95.46,17.25S278,168.9,297,188.07c19.48,19.73,28.4,40.25,22.07,56.74-6.72,17.54-29.29,26.94-59.66,27.67l-.76,0a103.69,103.69,0,0,0,30.61-41c-6-18.24-31.89-39.58-82.15-60.76C166,153.41,117.89,144.9,96.42,158.39l-1.11.74A103.3,103.3,0,0,0,90,192Z" style="fill:#4d5cc1"/><path d="M90.72,204.42a104.17,104.17,0,0,1,4.59-45.29c20.87-14.53,69.91-6,111.77,11.62,50.26,21.18,76.18,42.52,82.15,60.76a103.69,103.69,0,0,1-30.61,41l-.52.42a103.55,103.55,0,0,1-167.38-68.5ZM193.51,88.47A103.54,103.54,0,0,1,297,188.07c-18.92-19.17-47.82-37.58-82.38-50.83s-68.54-18.9-95.46-17.25A103.21,103.21,0,0,1,193.51,88.47Z" style="fill:#fff"/></svg>