<svg xmlns="http://www.w3.org/2000/svg" viewBox="0 0 92.64 92.44"><title>uc</title><path d="M32,92.42l-.47-.14c-13-3.68-19.2-18.16-15.64-29.91C17.72,56.19,21.73,51.61,27,48.05c3.53-2.4,7.18-4.6,10.7-7A26.2,26.2,0,0,0,48.41,27.29c2.32-7.18,1.55-13.92-3.6-19.68C39.4,1.56,32.43-.8,24.42.23,14.15,1.55,6.47,7,.89,15.54c-.22.35-.39.74-.59,1.11a17.14,17.14,0,0,1,7.37-2.77A10.53,10.53,0,0,1,19.3,22a13.18,13.18,0,0,1-2.64,10.78c-2.53,3.37-5.32,6.55-8.08,9.75C2.21,49.88-1.06,58.25.31,68.07A27,27,0,0,0,12.55,87.39c5.82,3.92,12.49,5.06,19.41,5" style="fill:#ef8200"/><path d="M49.33,39.32a38.56,38.56,0,0,1,11,1.72,57.67,57.67,0,0,1,14.5,6.51,19.37,19.37,0,0,0,13.84,2.61,14,14,0,0,0,2.83-.84,1.34,1.34,0,0,0,.69-1,22.27,22.27,0,0,0,0-3.56,22.76,22.76,0,0,0-3.91-11A21.23,21.23,0,0,0,77,25.66a1.63,1.63,0,0,1-1.23-1.38,22.88,22.88,0,0,0-.86-3,12.62,12.62,0,0,0-3.2-5.09c-.29.36-.54.63-.75.93a17.68,17.68,0,0,0-3,10.4,2.61,2.61,0,0,1-1.17,2.42c-2.39,1.57-4.69,3.29-7.21,4.63-3.32,1.76-6.82,3.21-10.23,4.79" style="fill:#ef8200"/><path d="M62.35,84.67A28.85,28.85,0,0,0,64,74.87a24.13,24.13,0,0,0-3-12.25c-4.94-8.41-12.37-12.84-22.24-12.77A18,18,0,0,0,26,55a17.38,17.38,0,0,0-4.08,6.15c9.28-9.8,24.36-6.85,30.1,2a18.86,18.86,0,0,1,2.3,17.15c-2.09,6.1-6.59,9.87-12.51,12.17,11.05,0,22.05-.18,33.3-1.2-2.74-5.4-7.61-6.17-12.78-6.57" style="fill:#ef8200"/><path d="M49.44,74.15A13.5,13.5,0,1,0,36,87.59,13.44,13.44,0,0,0,49.44,74.15" style="fill:#ef8200"/><path d="M92.64,61.7A5.33,5.33,0,0,0,90,57.35a12.74,12.74,0,0,0-6.12-1.73,28,28,0,0,1-11.13-3.19c-3-1.63-5.78-3.5-8.81-5a43.1,43.1,0,0,0-15.15-4,26.2,26.2,0,0,0-10.6,1.08,12.42,12.42,0,0,0-1.18.52,3,3,0,0,0,1.2.17,31.15,31.15,0,0,1,11.84,1.91c7.91,3,13.65,8.47,17.73,15.75a2.09,2.09,0,0,0,1.59,1.28,38.49,38.49,0,0,0,5.56.32c2.38-.14,4.52-1.23,6.66-2.22a13.47,13.47,0,0,1,8-1.29c1,.15,1.92.42,3.08.67" style="fill:#ef8200"/><path d="M32,92.42c-6.92,0-13.59-1.11-19.41-5A27,27,0,0,1,.31,68.07c-1.37-9.82,1.9-18.19,8.27-25.57,2.76-3.2,5.55-6.38,8.08-9.75A13.18,13.18,0,0,0,19.3,22,10.53,10.53,0,0,0,7.67,13.88,17.14,17.14,0,0,0,.3,16.65c.2-.37.37-.76.59-1.11C6.47,7,14.15,1.55,24.42.23c8-1,15,1.33,20.39,7.38,5.15,5.76,5.92,12.5,3.6,19.68A26.2,26.2,0,0,1,37.67,41.05c-3.52,2.4-7.17,4.6-10.7,7-5.24,3.56-9.25,8.14-11.12,14.32C12.29,74.12,18.44,88.6,31.49,92.28l.47.14" style="fill:#ef8200"/><path d="M49.33,39.32c3.41-1.58,6.91-3,10.23-4.79,2.52-1.34,4.82-3.06,7.21-4.63a2.61,2.61,0,0,0,1.17-2.42,17.68,17.68,0,0,1,3-10.4c.21-.3.46-.57.75-.93a12.62,12.62,0,0,1,3.2,5.09,22.88,22.88,0,0,1,.86,3A1.63,1.63,0,0,0,77,25.66a21.23,21.23,0,0,1,11.23,8.12,22.76,22.76,0,0,1,3.91,11,22.27,22.27,0,0,1,0,3.56,1.34,1.34,0,0,1-.69,1,14,14,0,0,1-2.83.84,19.37,19.37,0,0,1-13.84-2.61A57.67,57.67,0,0,0,60.33,41a38.56,38.56,0,0,0-11-1.72" style="fill:#ef8200"/><path d="M62.35,84.67c5.17.4,10,1.17,12.78,6.57-11.25,1-22.25,1.17-33.3,1.2,5.92-2.3,10.42-6.07,12.51-12.17A18.86,18.86,0,0,0,52,63.12c-5.74-8.82-20.82-11.77-30.1-2A17.38,17.38,0,0,1,26,55a18,18,0,0,1,12.77-5.15c9.87-.07,17.3,4.36,22.24,12.77a24.13,24.13,0,0,1,3,12.25,28.85,28.85,0,0,1-1.67,9.8" style="fill:#ef8200"/><path d="M49.44,74.15A13.5,13.5,0,1,1,36,60.71,13.39,13.39,0,0,1,49.44,74.15m-13.56,6.2A6.2,6.2,0,1,0,36,68a6.2,6.2,0,1,0-.1,12.4" style="fill:#ef8200"/><path d="M92.64,61.7c-1.16-.25-2.11-.52-3.08-.67a13.47,13.47,0,0,0-8,1.29c-2.14,1-4.28,2.08-6.66,2.22a38.49,38.49,0,0,1-5.56-.32,2.09,2.09,0,0,1-1.59-1.28C63.72,55.66,58,50.19,50.07,47.19a31.15,31.15,0,0,0-11.84-1.91,3,3,0,0,1-1.2-.17,12.42,12.42,0,0,1,1.18-.52,26.2,26.2,0,0,1,10.6-1.08,43.1,43.1,0,0,1,15.15,4c3,1.47,5.86,3.34,8.81,5A28,28,0,0,0,83.9,55.62,12.74,12.74,0,0,1,90,57.35a5.33,5.33,0,0,1,2.62,4.35" style="fill:#ef8200"/><path d="M35.88,80.35a6.2,6.2,0,1,1,6.3-6.14,6.15,6.15,0,0,1-6.3,6.14" style="fill:#ef8200"/></svg>