<svg xmlns="http://www.w3.org/2000/svg" viewBox="0 0 44 44"><title>vivaldi</title><path d="M22,0C12.51,0,7.28,0,3.63,3.64S0,12.51,0,22,0,36.74,3.63,40.38,12.51,44,22,44s14.72,0,18.37-3.64S44,31.49,44,22,44,7.26,40.37,3.62,31.49,0,22,0Zm0,6a16,16,0,1,1-11.31,4.69A15.9,15.9,0,0,1,22,6Zm-7.68,7a3.5,3.5,0,0,0-2.84,5.26c.59,1,1.18,2,1.76,3.06l1.81,3.14c1.31,2.27,2.61,4.54,3.93,6.8A3.36,3.36,0,0,0,22,33h.29a3.45,3.45,0,0,0,2.82-1.84L32.5,18.29a3.48,3.48,0,0,0-3.68-5.2,3.49,3.49,0,0,0-2.37,5.07A4,4,0,0,1,27,20c0,1.58-2,2-3,2-2.17,0-3-1.19-4.43-3.68l-1-1.73-1.05-1.81A3.35,3.35,0,0,0,14.32,13Z" style="fill:#ef3939"/></svg>