<svg xmlns="http://www.w3.org/2000/svg" viewBox="0 0 248.31 226.88"><title>adwords</title><path d="M84.5,28.57a44.87,44.87,0,0,1,10.6-16.8,41.52,41.52,0,0,1,65.3,9.7c10,18.2,20.6,36,30.9,54,17.2,29.9,34.6,59.8,51.6,89.8,14.3,25.1-1.2,56.8-29.6,61.1-17.4,2.6-33.7-5.4-42.7-21q-22.65-39.45-45.4-78.8a9.06,9.06,0,0,0-1.1-1.6c-1.6-1.3-2.3-3.2-3.3-4.9-6.7-11.8-13.6-23.5-20.3-35.2-4.3-7.6-8.8-15.1-13.1-22.7a41.41,41.41,0,0,1-5.5-22c.3-4,.8-8,2.6-11.6" style="fill:#3c8bd9"/><path d="M84.5,28.57a57.52,57.52,0,0,0-1.9,11,43.2,43.2,0,0,0,6,23.5q16.5,28.35,32.9,56.9c1,1.7,1.8,3.4,2.8,5-6,10.4-12,20.7-18.1,31.1-8.4,14.5-16.8,29.1-25.3,43.6-.4,0-.5-.2-.6-.5a6.2,6.2,0,0,1,.4-2.3c4.1-15,.7-28.3-9.6-39.7a38.11,38.11,0,0,0-23.5-12.1c-12-1.7-22.6,1.4-32.1,8.9-1.7,1.3-2.8,3.2-4.8,4.2a.67.67,0,0,1-.7-.5c4.8-8.3,9.5-16.6,14.3-24.9Q54,81.17,83.8,29.67c.2-.4.5-.7.7-1.1" style="fill:#fabc04"/><path d="M10.4,158c1.9-1.7,3.7-3.5,5.7-5.1,24.3-19.2,60.8-5.3,66.1,25.1a44,44,0,0,1-1.6,21.3,10.46,10.46,0,0,1-.4,1.7c-.9,1.6-1.7,3.3-2.7,4.9-8.9,14.7-22,22-39.2,20.9A41,41,0,0,1,.4,191a40,40,0,0,1,5.5-26.6c1-1.8,2.2-3.4,3.3-5.2.5-.4.3-1.2,1.2-1.2" style="fill:#34a852"/><path d="M10.4,158c-.4.4-.4,1.1-1.1,1.2-.1-.7.3-1.1.7-1.6l.4.4" style="fill:#fabc04"/><path d="M80.2,201c-.4-.7,0-1.2.4-1.7l.4.4-.8,1.3" style="fill:#e1c025"/></svg>