<svg xmlns="http://www.w3.org/2000/svg" viewBox="0 0 1024 1024"><title>facebook</title><path d="M1024,512C1024,229.3,794.7,0,512,0S0,229.3,0,512c0,255.5,187.2,467.4,432,505.8V660H302V512H432V399.2C432,270.9,508.5,200,625.4,200c56,0,114.6,10,114.6,10V336H675.4c-63.6,0-83.4,39.5-83.4,80v96H734L711.3,660H592v357.8C836.8,979.4,1024,767.6,1024,512Z" style="fill:#1977f3"/><path d="M711.3,660,734,512H592V416c0-40.5,19.8-80,83.4-80H740V210s-58.6-10-114.6-10C508.5,200,432,270.8,432,399.2V512H302V660H432v357.8a515.08,515.08,0,0,0,80,6.2,527.65,527.65,0,0,0,80-6.2V660Z" style="fill:#fefefe"/></svg>