<svg xmlns="http://www.w3.org/2000/svg" viewBox="0 0 53.56 55.36"><title>quora</title><path d="M28.48,43.16c-1.92-3.77-4.17-7.58-8.56-7.58a5.9,5.9,0,0,0-2.45.49l-1.49-3a13.09,13.09,0,0,1,8.53-2.79c5.87,0,8.88,2.83,11.28,6.44,1.41-3.09,2.09-7.25,2.09-12.41,0-12.88-4-19.5-13.44-19.5s-13.28,6.62-13.28,19.5,4,19.36,13.28,19.36A14.32,14.32,0,0,0,28.48,43.16Zm2.29,4.5a24.83,24.83,0,0,1-6.33.85C12.09,48.51,0,38.65,0,24.32S12.09,0,24.44,0C37,0,49,9.78,49,24.32a23.54,23.54,0,0,1-9.26,18.91c1.78,2.65,3.6,4.41,6.14,4.41a4,4,0,0,0,4.08-3.82h3.61c.21,2.24-.91,11.54-11,11.54C36.43,55.36,33.2,51.81,30.77,47.66Z" style="fill:#b92b27"/></svg>