<svg xmlns="http://www.w3.org/2000/svg" viewBox="0 0 304.96 305.16"><title>pinterest</title><path d="M152.5,0A152.56,152.56,0,0,0,96.9,294.6c-1.3-12.1-2.5-30.6.5-43.8,2.8-11.9,17.9-75.8,17.9-75.8a55.08,55.08,0,0,1-4.6-22.6c0-21.2,12.3-37,27.6-37,13,0,19.3,9.8,19.3,21.5,0,13.1-8.3,32.6-12.6,50.8-3.6,15.2,7.6,27.6,22.6,27.6,27.1,0,47.9-28.6,47.9-69.8,0-36.5-26.2-62-63.7-62C108.5,83.2,83,115.8,83,149.4c0,13.1,5.1,27.2,11.3,34.8a4.71,4.71,0,0,1,1.1,4.4c-1.2,4.8-3.7,15.2-4.2,17.3-.7,2.8-2.2,3.4-5.1,2-19.1-8.9-31-36.7-31-59,0-48.1,35-92.3,100.8-92.3,52.9,0,94,37.7,94,88.1,0,52.6-33.1,94.8-79.1,94.8-15.4,0-30-8-35-17.5,0,0-7.6,29.1-9.5,36.3-3.4,13.3-12.7,29.9-19,40A152.52,152.52,0,0,0,197.5,6.9a149.83,149.83,0,0,0-45-6.9" style="fill:#e60023"/></svg>