<svg xmlns="http://www.w3.org/2000/svg" viewBox="0 0 32 36.07"><title>android</title><path d="M4,23.07a2,2,0,0,1-4,0v-9a2,2,0,0,1,4,0Zm28,0a2,2,0,0,1-4,0v-9a2,2,0,0,1,4,0Zm-18,11a2,2,0,0,1-4,0v-9a2,2,0,0,1,4,0Zm8,0a2,2,0,0,1-4,0v-9a2,2,0,0,1,4,0Z" style="fill:#7cb342"/><path d="M6,12.07v15a2,2,0,0,0,2,2H24a2,2,0,0,0,2-2v-15Zm10-10c-6,0-9.7,3.6-10,8H26C25.7,5.67,22,2.07,16,2.07Zm-4,5.6a.94.94,0,0,1-1-1,1,1,0,0,1,2,0A1,1,0,0,1,12,7.67Zm8,0a.94.94,0,0,1-1-1,1,1,0,0,1,2,0A1,1,0,0,1,20,7.67Z" style="fill:#7cb342"/><path d="M20.3,4.57a1.42,1.42,0,0,1-.6-.2A1,1,0,0,1,19.4,3L21.1.47a1,1,0,0,1,1.4-.3,1,1,0,0,1,.3,1.4l-1.7,2.5A.79.79,0,0,1,20.3,4.57Zm-9-.4a.89.89,0,0,1-.8-.5L9.2,1.57A1,1,0,0,1,9.5.17a1,1,0,0,1,1.4.3l1.3,2.1A1,1,0,0,1,11.9,4,1.42,1.42,0,0,1,11.3,4.17Z" style="fill:#7cb342"/></svg>