<svg xmlns="http://www.w3.org/2000/svg" viewBox="0 0 31 36"><title>macos</title><path d="M31,26.61a25.15,25.15,0,0,1-2.34,4.28C27.14,33.15,25,36,22.33,36c-2.36,0-3-1.51-6.17-1.49S12.28,36,9.92,36c-2.65,0-4.69-2.57-6.21-4.83C-.55,24.83-1,17.4,1.63,13.45A9.47,9.47,0,0,1,9.21,9c2.81,0,4.58,1.52,6.91,1.52S19.76,9,23,9A9.28,9.28,0,0,1,30,12.57,7.68,7.68,0,0,0,31,26.61Z" style="fill:#d6d6d6"/><path d="M21,6.07A8,8,0,0,0,22.84,0a9.27,9.27,0,0,0-5.9,3.08A7.44,7.44,0,0,0,15,9,7.77,7.77,0,0,0,21,6.07Z" style="fill:#d6d6d6"/><path d="M27.65,14.42C18.92,24,10.92,15,.14,21.84a21.66,21.66,0,0,0,3.57,9.33C5.23,33.43,7.27,36,9.92,36c2.36,0,3-1.47,6.24-1.49S20,36,22.33,36c2.66,0,4.81-2.85,6.33-5.11A25.15,25.15,0,0,0,31,26.61,7.72,7.72,0,0,1,27.65,14.42Z" style="fill:#c1c1c1"/></svg>