<svg xmlns="http://www.w3.org/2000/svg" viewBox="0 0 254.82 250.89"><title>freebsd</title><path d="M251.9,4.28c13.51,13.5-23.94,72.85-30.27,79.19s-22.41.5-35.91-13-19.32-29.59-13-35.92S238.4-9.23,251.9,4.28" style="fill:#b5010f"/><path d="M62.49,18.57C41.86,6.87,12.52-6.15,3.19,3.19S7.22,42.64,19,63.3A126.81,126.81,0,0,1,62.49,18.57" style="fill:#b5010f"/><path d="M231.3,78.81c1.9,6.44,1.56,11.76-1.52,14.83-7.19,7.2-26.62-.46-44.14-17.13-1.22-1.1-2.43-2.23-3.63-3.43A78.41,78.41,0,0,1,167.6,53.79c-6.13-11-7.67-20.73-3-25.36,2.52-2.53,6.57-3.22,11.5-2.33,3.22-2,7-4.3,11.18-6.62A122.68,122.68,0,1,0,237.5,68.12c-2.17,4-4.27,7.58-6.2,10.69" style="fill:#b5010f"/></svg>