<svg xmlns="http://www.w3.org/2000/svg" viewBox="0 0 31.12 36.31"><title>linux</title><path d="M11.22,10.29l.1,2.3-1.6,3-2.5,4.9-.5,4.1,1.8,5.8,4.1,2.3h6.2l5.8-4.4,2.6-6.9-6-7.3L19.52,10Z" style="fill:#eceff1"/><path d="M25.42,16c-1.6-2.3-2.9-3.7-3.6-6.6s.2-2.1-.4-4.6a7.85,7.85,0,0,0-1.3-2.9,3.8,3.8,0,0,0-1.7-1.2,5.68,5.68,0,0,0-5.6.1c-2.7,1.4-2.4,4.4-1.9,10.5a3.08,3.08,0,0,1-.3,1.3A10.39,10.39,0,0,1,8.92,15,19.82,19.82,0,0,0,7,18.09c-1.2,2.3-2.3,5.2-2,6.3.5-.1,6.8,9.5,6.8,9.7a31.43,31.43,0,0,1,3.6-.1,16.23,16.23,0,0,1,5,.2c0-.3-.1-.6-.1-.9a12.37,12.37,0,0,1,.2-1.8c.1-.5.2-1,.3-1.6a10,10,0,0,1-4.5,2.2,5.86,5.86,0,0,1-5.2-1.7.6.6,0,0,0,.4-.1c.3-.1.6-.2.7-.4a1.19,1.19,0,0,0-.1-1.3c-.2-.3-1.7-1.4-2.4-2s-1.1-.9-1.5-1.3l-.8-.8c-.2-.2-.3-.4-.4-.5a3.71,3.71,0,0,1-.2-1.9,8.19,8.19,0,0,1,1-3c.2-.4.7-1.2.7-1.2s-1.7,4.2-.8,5.5a13.57,13.57,0,0,1,.5-2.6,9.75,9.75,0,0,1,1.4-2.9,11.73,11.73,0,0,0,2.2-4.9c0-.7.1-1.4.1-1.9-.4-.4,6.6-1.4,7-.3.1.4,1.5,4,2.3,5.9a22.07,22.07,0,0,1,1.2,2.7,16.42,16.42,0,0,1,.5,4.1,6.64,6.64,0,0,1-.1,1.3c.2,0,4.1-4.2-.5-7.7,0,0,2.8,1.3,2.9,3.9a7.69,7.69,0,0,1-1,4.1c.1,0,2.1.9,2.2.9a5,5,0,0,0,1.2-.3,7.37,7.37,0,0,0,.4-1.4C28.72,22,27,18.29,25.42,16Z" style="fill:#263238"/><path d="M12.72,5.39c-.72,0-1.3.89-1.31,2s.59,2,1.3,2h0c.71,0,1.3-.9,1.3-2s-.58-2-1.3-2Zm4.5-.4c-.94,0-1.7,1-1.7,2.3s.76,2.3,1.7,2.3,1.7-1,1.7-2.3S18.15,5,17.22,5Z" style="fill:#eceff1"/><path d="M12.05,7.7c.09.65.46,1.15.85,1.1s.63-.62.54-1.28S13,6.37,12.6,6.42,12,7,12.05,7.7Z" style="fill:#212121"/><path d="M17.12,6.39c-.56,0-1,.58-1,1.29a1.2,1.2,0,0,0,1,1.31h0a1.19,1.19,0,0,0,1-1.3,1.18,1.18,0,0,0-1-1.3Z" style="fill:#212121"/><path d="M30.42,29.69a3.83,3.83,0,0,1-1.7-1.4c-.3-.5-.2-1.9-.7-2.5a.69.69,0,0,0-.8-.2c-.9.2-3,1.6-4.4,0a1.37,1.37,0,0,0-1-.5.87.87,0,0,0-.9.6,3.46,3.46,0,0,0-.2,1.7,18.48,18.48,0,0,1-.1,2.4c-.2,1.7-.5,2.7-.5,3.7a2.59,2.59,0,0,0,.7,2.1,2.53,2.53,0,0,0,1.9.5,3.25,3.25,0,0,0,2.5-1.1,19.08,19.08,0,0,1,2.3-1.7c1.1-.7,2.8-1.6,3.1-1.9s.5-.3.5-.9A.86.86,0,0,0,30.42,29.69Zm-20.1.3c-1-1.6-1.1-1.9-1.8-2.9s-1.9-2.9-2.7-2.9a1.71,1.71,0,0,0-1.3.7A10.94,10.94,0,0,1,3,26.69c-.6.5-2.3.4-2.7,1s.4,1.5.4,3c0,.6-.5,1-.6,1.4a1.65,1.65,0,0,0,0,1.2c.4.6.9.8,4.3,1.5,1.8.4,3.5,1.4,4.6,1.5s3,0,3-2.7C12.12,32,11.22,31.59,10.32,30Zm1.9-18.1c-.6-.4-1.1-.8-1.1-1.4s.4-.8,1-1.3a4,4,0,0,1,2.3-1.1,8.27,8.27,0,0,1,2.9.9c.9.2,1.8.4,1.7,1.1-.1,1-.2,1.2-1.2,1.7-.7.2-2,1.3-2.9,1.3a6.6,6.6,0,0,1-1.4-.1A5.34,5.34,0,0,1,12.22,11.89Z" style="fill:#ffc107"/><path d="M12,11.09a2.18,2.18,0,0,0,.8.5,4.71,4.71,0,0,0,.5.2h.9a4.13,4.13,0,0,0,1.9-.6c.7-.3.8-.5,1.3-.7s1-.6.8-.7-.4,0-1.1.4a14,14,0,0,1-1.7.9,3.81,3.81,0,0,1-1,.3h-.9a2.35,2.35,0,0,1-.8-.2c-.2-.1-.3-.2-.4-.2s-.6-.5-.8-.6c0,0-.2,0-.1.1Zm3-2.2c.1.2.3.2.4.3a.31.31,0,0,0,.2.1.19.19,0,0,0-.1-.3C15.52,8.79,15,8.79,15,8.89Zm-1.6.2c0,.1.2.2.2.1s.2-.2.3-.2.1-.2-.2-.2S13.52,9,13.42,9.09Z" style="fill:#634703"/><path d="M23.12,26.79v.3a1.17,1.17,0,0,0,1.1.5,2,2,0,0,0,1.5-.8c0-.1.1-.2.2-.3a5.92,5.92,0,0,1,.4-.6.35.35,0,0,1-.1-.2,1.23,1.23,0,0,0-.8-.5,4.4,4.4,0,0,0-1-.2,1.93,1.93,0,0,0-1.7.5.1.1,0,0,1,.1.1.91.91,0,0,1,.3.7C23.22,26.49,23.12,26.59,23.12,26.79Z" style="fill:#455a64"/></svg>