<svg xmlns="http://www.w3.org/2000/svg" xmlns:xlink="http://www.w3.org/1999/xlink" viewBox="0 0 511.99 491.47"><defs><linearGradient id="a" x1="210.94" y1="4.92" x2="97.25" y2="-19.04" gradientTransform="matrix(1, 0, 0, -1, 0, 437.96)" gradientUnits="userSpaceOnUse"><stop offset="0" stop-color="#00a1e5"/><stop offset="1" stop-color="#66d9ff"/></linearGradient><linearGradient id="b" x1="246.6" y1="108.86" x2="275.7" y2="38.82" gradientTransform="matrix(1, 0, 0, -1, 0, 437.96)" gradientUnits="userSpaceOnUse"><stop offset="0" stop-color="#677784" stop-opacity="0.5"/><stop offset="0.45" stop-color="#677784" stop-opacity="0.71"/><stop offset="1" stop-color="#677784"/></linearGradient><linearGradient id="c" x1="-28.66" y1="-623.86" x2="-142.36" y2="-647.81" gradientTransform="matrix(0.31, -0.95, -0.95, -0.31, -184.86, 144.21)" xlink:href="#a"/><linearGradient id="d" x1="7.9" y1="-519.39" x2="37.01" y2="-589.43" gradientTransform="matrix(0.31, -0.95, -0.95, -0.31, -185.51, 144.77)" xlink:href="#b"/><linearGradient id="e" x1="-450.95" y1="-465.89" x2="-564.65" y2="-489.84" gradientTransform="matrix(-0.81, -0.59, -0.59, 0.81, -246.13, 275.46)" xlink:href="#a"/><linearGradient id="f" x1="-413.78" y1="-360.75" x2="-384.68" y2="-430.79" gradientTransform="matrix(-0.81, -0.59, -0.59, 0.81, -245.68, 275.62)" xlink:href="#b"/><linearGradient id="g" x1="-132.1" y1="189.89" x2="-245.8" y2="165.94" gradientTransform="matrix(-0.81, 0.59, 0.59, 0.81, -18.97, 32.37)" xlink:href="#a"/><linearGradient id="h" x1="-96.09" y1="294.88" x2="-66.99" y2="224.84" gradientTransform="matrix(-0.81, 0.59, 0.59, 0.81, -19.35, 31.45)" xlink:href="#b"/><linearGradient id="i" x1="855.58" y1="352.21" x2="741.89" y2="328.25" gradientTransform="matrix(0.31, 0.95, 0.95, -0.31, -512, -430.04)" xlink:href="#a"/><linearGradient id="j" x1="891.4" y1="455.98" x2="920.5" y2="385.95" gradientTransform="matrix(0.31, 0.95, 0.95, -0.31, -511.43, -429.83)" xlink:href="#b"/></defs><title>tizen</title><path d="M109.09,491.47A6.58,6.58,0,0,1,103.78,481l67.36-92.72a10,10,0,0,1,8.12-4.15H258v74.53l-21.1,17.7c-12.82,10.76-29.11,15.08-54.37,15.08Z" style="fill:url(#a)"/><path d="M279.75,298.85a5.33,5.33,0,0,0-6-2l-12.09,3.93A5.36,5.36,0,0,0,258,306V415c0,25.41-7.13,49.67-21.1,61.39l99-83a11,11,0,0,0,1.78-14.87Z"/><path d="M279.75,298.85a5.33,5.33,0,0,0-6-2l-12.09,3.93A5.36,5.36,0,0,0,258,306V415c0,25.41-7.13,49.67-21.1,61.39l99-83a11,11,0,0,0,1.78-14.87Z" style="opacity:0.6000000238418579;isolation:isolate;fill:url(#b)"/><path d="M423.71,479.18a6.58,6.58,0,0,1-11.57,1.8l-67.37-92.7a10,10,0,0,1-1.43-9l24.31-74.84,70.88,23L448.85,353c6.27,15.51,5.34,32.35-2.46,56.37Z" style="fill:url(#c)"/><path d="M293.25,257.34a5.35,5.35,0,0,0-3.71,5.1v12.72a5.35,5.35,0,0,0,3.7,5.11L397,314c24.16,7.85,45,22.13,51.87,39l-48.4-119.77a11,11,0,0,0-13.6-6.23Z"/><path d="M293.25,257.34a5.35,5.35,0,0,0-3.71,5.1v12.72a5.35,5.35,0,0,0,3.7,5.11L397,314c24.16,7.85,45,22.13,51.87,39l-48.4-119.77a11,11,0,0,0-13.6-6.23Z" style="opacity:0.6000000238418579;isolation:isolate;fill:url(#d)"/><path d="M509.3,176.21a6.59,6.59,0,0,1,1.43,9.2,6.67,6.67,0,0,1-3.28,2.37l-109,35.42a10,10,0,0,1-9-1.42l-63.67-46.25,43.81-60.29,27.48-1.93c16.68-1.16,32.41,4.92,52.84,19.76Z" style="fill:url(#e)"/><path d="M258,231.73a5.31,5.31,0,0,0,3.7,5.1l12.09,3.93a5.36,5.36,0,0,0,6-1.94l64.11-88.24c14.93-20.55,35-36,53.16-37.27l-128.87,9a11,11,0,0,0-10.18,11Z"/><path d="M258,231.73a5.31,5.31,0,0,0,3.7,5.1l12.09,3.93a5.36,5.36,0,0,0,6-1.94l64.11-88.24c14.93-20.55,35-36,53.16-37.27l-128.87,9a11,11,0,0,0-10.18,11Z" style="opacity:0.6000000238418579;isolation:isolate;fill:url(#f)"/><path d="M247.6,1.23A6.57,6.57,0,0,1,258,6.56V121.17a10,10,0,0,1-4.13,8.12l-63.66,46.25-43.8-60.29,6.66-26.73c4-16.22,14.69-29.3,35.12-44.15Z" style="fill:url(#g)"/><path d="M222.76,257.38a5.31,5.31,0,0,0,6-1.94l7.47-10.29a5.37,5.37,0,0,0,0-6.32l-64.1-88.23c-14.94-20.56-23.43-44.38-19-62.08L121.86,213.87A11,11,0,0,0,129.15,227Z"/><path d="M222.76,257.38a5.31,5.31,0,0,0,6-1.94l7.47-10.29a5.37,5.37,0,0,0,0-6.32l-64.1-88.23c-14.94-20.56-23.43-44.38-19-62.08L121.86,213.87A11,11,0,0,0,129.15,227Z" style="opacity:0.6000000238418579;isolation:isolate;fill:url(#h)"/><path d="M.32,196a6.59,6.59,0,0,1,8.3-8.27l109,35.41a10,10,0,0,1,6.45,6.44l24.32,74.84-70.88,23-23.36-14.6C40,304,30.81,289.87,23,265.84Z" style="fill:url(#i)"/><path d="M236.25,298.83a5.34,5.34,0,0,0,0-6.3l-7.48-10.29a5.4,5.4,0,0,0-6-2L119.05,314c-24.16,7.85-49.44,8.56-64.91-1.1L163.7,381.35a11,11,0,0,0,14.69-2.9Z"/><path d="M236.25,298.83a5.34,5.34,0,0,0,0-6.3l-7.48-10.29a5.4,5.4,0,0,0-6-2L119.05,314c-24.16,7.85-49.44,8.56-64.91-1.1L163.7,381.35a11,11,0,0,0,14.69-2.9Z" style="opacity:0.6000000238418579;isolation:isolate;fill:url(#j)"/></svg>