<svg xmlns="http://www.w3.org/2000/svg" viewBox="0 0 104.09 104.09"><title>ubuntu</title><path d="M104.09,52.05a52,52,0,1,1-52-52,52,52,0,0,1,52,52.05Z" style="fill:#dd4814"/><path d="M16.66,45.1a6.95,6.95,0,1,0,6.94,6.95,6.95,6.95,0,0,0-6.94-6.95ZM66.27,76.68a6.95,6.95,0,1,0,9.49,2.54,6.95,6.95,0,0,0-9.49-2.54ZM31.75,52.05a20.26,20.26,0,0,1,8.63-16.61L35.3,26.93A30.22,30.22,0,0,0,22.82,44.48a9.77,9.77,0,0,1,0,15.13A30.18,30.18,0,0,0,35.3,77.16l5.08-8.51a20.26,20.26,0,0,1-8.63-16.6Zm20.3-20.3a20.29,20.29,0,0,1,20.21,18.5l9.9-.15a30.06,30.06,0,0,0-9-19.58A9.74,9.74,0,0,1,60.11,23a30.19,30.19,0,0,0-21.44,2l4.83,8.66a20.16,20.16,0,0,1,8.55-1.89Zm0,40.59a20.16,20.16,0,0,1-8.55-1.89l-4.83,8.66a30.19,30.19,0,0,0,21.44,2,9.74,9.74,0,0,1,13.08-7.56,30.06,30.06,0,0,0,9-19.58l-9.9-.15a20.28,20.28,0,0,1-20.21,18.5ZM66.27,27.41a6.95,6.95,0,1,0-2.55-9.49,6.95,6.95,0,0,0,2.55,9.49Z" style="fill:#fff"/></svg>